G04 #@! TF.FileFunction,Legend,Top*
%FSLAX46Y46*%
G04 Gerber Fmt 4.6, Leading zero omitted, Abs format (unit mm)*
G04 Created by KiCad (PCBNEW 4.0.7) date 04/28/18 14:25:07*
%MOMM*%
%LPD*%
G01*
G04 APERTURE LIST*
%ADD10C,0.100000*%
G04 APERTURE END LIST*
D10*
X156992857Y-108591333D02*
X157278571Y-108591333D01*
X156935714Y-108819905D02*
X157135714Y-108019905D01*
X157335714Y-108819905D01*
X157450000Y-108019905D02*
X157792857Y-108019905D01*
X157621428Y-108819905D02*
X157621428Y-108019905D01*
X157907143Y-108286571D02*
X158135714Y-108286571D01*
X157992857Y-108019905D02*
X157992857Y-108705619D01*
X158021429Y-108781810D01*
X158078571Y-108819905D01*
X158135714Y-108819905D01*
X158335714Y-108819905D02*
X158335714Y-108286571D01*
X158335714Y-108019905D02*
X158307143Y-108058000D01*
X158335714Y-108096095D01*
X158364286Y-108058000D01*
X158335714Y-108019905D01*
X158335714Y-108096095D01*
X158621428Y-108286571D02*
X158621428Y-108819905D01*
X158621428Y-108362762D02*
X158650000Y-108324667D01*
X158707142Y-108286571D01*
X158792857Y-108286571D01*
X158850000Y-108324667D01*
X158878571Y-108400857D01*
X158878571Y-108819905D01*
X159107142Y-108286571D02*
X159249999Y-108819905D01*
X159392857Y-108286571D02*
X159249999Y-108819905D01*
X159192857Y-109010381D01*
X159164285Y-109048476D01*
X159107142Y-109086571D01*
X159935714Y-108819905D02*
X159592857Y-108819905D01*
X159764285Y-108819905D02*
X159764285Y-108019905D01*
X159707142Y-108134190D01*
X159650000Y-108210381D01*
X159592857Y-108248476D01*
X160307143Y-108019905D02*
X160364286Y-108019905D01*
X160421429Y-108058000D01*
X160450000Y-108096095D01*
X160478571Y-108172286D01*
X160507143Y-108324667D01*
X160507143Y-108515143D01*
X160478571Y-108667524D01*
X160450000Y-108743714D01*
X160421429Y-108781810D01*
X160364286Y-108819905D01*
X160307143Y-108819905D01*
X160250000Y-108781810D01*
X160221429Y-108743714D01*
X160192857Y-108667524D01*
X160164286Y-108515143D01*
X160164286Y-108324667D01*
X160192857Y-108172286D01*
X160221429Y-108096095D01*
X160250000Y-108058000D01*
X160307143Y-108019905D01*
X160997905Y-109100952D02*
X160959810Y-109053333D01*
X160940762Y-109005714D01*
X160921714Y-108910476D01*
X160921714Y-108862857D01*
X160940762Y-108767619D01*
X160959810Y-108720000D01*
X160997905Y-108672381D01*
X161074095Y-108672381D01*
X161112191Y-108720000D01*
X161131238Y-108767619D01*
X161150286Y-108862857D01*
X161150286Y-108910476D01*
X161131238Y-109005714D01*
X161112191Y-109053333D01*
X161074095Y-109100952D01*
X160997905Y-109100952D01*
X160959810Y-109148571D01*
X160940762Y-109196190D01*
X160921714Y-109291429D01*
X160921714Y-109481905D01*
X160940762Y-109577143D01*
X160959810Y-109624762D01*
X160997905Y-109672381D01*
X161074095Y-109672381D01*
X161112191Y-109624762D01*
X161131238Y-109577143D01*
X161150286Y-109481905D01*
X161150286Y-109291429D01*
X161131238Y-109196190D01*
X161112191Y-109148571D01*
X161074095Y-109100952D01*
X160902667Y-111212381D02*
X161169334Y-111212381D01*
X160997905Y-112212381D01*
X161112191Y-113752381D02*
X161036000Y-113752381D01*
X160997905Y-113800000D01*
X160978857Y-113847619D01*
X160940762Y-113990476D01*
X160921714Y-114180952D01*
X160921714Y-114561905D01*
X160940762Y-114657143D01*
X160959810Y-114704762D01*
X160997905Y-114752381D01*
X161074095Y-114752381D01*
X161112191Y-114704762D01*
X161131238Y-114657143D01*
X161150286Y-114561905D01*
X161150286Y-114323810D01*
X161131238Y-114228571D01*
X161112191Y-114180952D01*
X161074095Y-114133333D01*
X160997905Y-114133333D01*
X160959810Y-114180952D01*
X160940762Y-114228571D01*
X160921714Y-114323810D01*
X161131238Y-116292381D02*
X160940762Y-116292381D01*
X160921714Y-116768571D01*
X160940762Y-116720952D01*
X160978857Y-116673333D01*
X161074095Y-116673333D01*
X161112191Y-116720952D01*
X161131238Y-116768571D01*
X161150286Y-116863810D01*
X161150286Y-117101905D01*
X161131238Y-117197143D01*
X161112191Y-117244762D01*
X161074095Y-117292381D01*
X160978857Y-117292381D01*
X160940762Y-117244762D01*
X160921714Y-117197143D01*
X156540191Y-116625714D02*
X156540191Y-117292381D01*
X156444953Y-116244762D02*
X156349714Y-116959048D01*
X156597334Y-116959048D01*
X156330667Y-113752381D02*
X156578286Y-113752381D01*
X156444953Y-114133333D01*
X156502095Y-114133333D01*
X156540191Y-114180952D01*
X156559238Y-114228571D01*
X156578286Y-114323810D01*
X156578286Y-114561905D01*
X156559238Y-114657143D01*
X156540191Y-114704762D01*
X156502095Y-114752381D01*
X156387810Y-114752381D01*
X156349714Y-114704762D01*
X156330667Y-114657143D01*
X156349714Y-111307619D02*
X156368762Y-111260000D01*
X156406857Y-111212381D01*
X156502095Y-111212381D01*
X156540191Y-111260000D01*
X156559238Y-111307619D01*
X156578286Y-111402857D01*
X156578286Y-111498095D01*
X156559238Y-111640952D01*
X156330667Y-112212381D01*
X156578286Y-112212381D01*
X156578286Y-109672381D02*
X156349714Y-109672381D01*
X156464000Y-109672381D02*
X156464000Y-108672381D01*
X156425905Y-108815238D01*
X156387810Y-108910476D01*
X156349714Y-108958095D01*
X157734000Y-112014000D02*
X159766000Y-112014000D01*
X157734000Y-114046000D02*
X159766000Y-114046000D01*
X158550000Y-115370000D02*
X158550000Y-115770000D01*
X158600000Y-115570000D02*
X158900000Y-115370000D01*
X158900000Y-115770000D02*
X158600000Y-115570000D01*
X158900000Y-115370000D02*
X158900000Y-115770000D01*
X158550000Y-110290000D02*
X158550000Y-110690000D01*
X158600000Y-110490000D02*
X158900000Y-110290000D01*
X158900000Y-110690000D02*
X158600000Y-110490000D01*
X158900000Y-110290000D02*
X158900000Y-110690000D01*
M02*
